<svg xmlns="http://www.w3.org/2000/svg" xmlns:xlink="http://www.w3.org/1999/xlink" width="500" zoomAndPan="magnify" viewBox="0 0 375 374.999991" height="500" preserveAspectRatio="xMidYMid meet" version="1.0"><defs><g/><clipPath id="aef2125162"><path d="M 147.660156 166.898438 L 157.402344 166.898438 L 157.402344 177.019531 L 147.660156 177.019531 Z M 147.660156 166.898438 " clip-rule="nonzero"/></clipPath><clipPath id="4dab225c6e"><path d="M 150.660156 166.898438 L 154.402344 166.898438 C 155.199219 166.898438 155.960938 167.214844 156.523438 167.777344 C 157.085938 168.339844 157.402344 169.101562 157.402344 169.898438 L 157.402344 174.015625 C 157.402344 174.808594 157.085938 175.574219 156.523438 176.136719 C 155.960938 176.699219 155.199219 177.015625 154.402344 177.015625 L 150.660156 177.015625 C 149.867188 177.015625 149.101562 176.699219 148.539062 176.136719 C 147.976562 175.574219 147.660156 174.808594 147.660156 174.015625 L 147.660156 169.898438 C 147.660156 169.101562 147.976562 168.339844 148.539062 167.777344 C 149.101562 167.214844 149.867188 166.898438 150.660156 166.898438 Z M 150.660156 166.898438 " clip-rule="nonzero"/></clipPath></defs><g fill="#000000" fill-opacity="1"><g transform="translate(108.524634, 210.210706)"><g><path d="M 31.78125 -30.0625 L 31.78125 -2.34375 C 31.78125 2.039062 30.5 5.382812 27.9375 7.6875 C 25.382812 9.988281 21.117188 11.140625 15.140625 11.140625 C 12.097656 11.140625 9.238281 10.894531 6.5625 10.40625 L 6.5625 4.015625 C 9.050781 4.609375 11.707031 4.90625 14.53125 4.90625 C 17.875 4.90625 20.25 4.347656 21.65625 3.234375 C 23.0625 2.117188 23.765625 0.148438 23.765625 -2.671875 L 23.765625 -4.28125 C 23.140625 -2.875 22.117188 -1.804688 20.703125 -1.078125 C 19.296875 -0.359375 17.296875 0 14.703125 0 C 10.128906 0 6.953125 -1.296875 5.171875 -3.890625 C 3.390625 -6.492188 2.5 -10.300781 2.5 -15.3125 C 2.5 -19.988281 3.410156 -23.707031 5.234375 -26.46875 C 7.054688 -29.238281 10.210938 -30.625 14.703125 -30.625 C 17.335938 -30.625 19.347656 -30.25 20.734375 -29.5 C 22.128906 -28.757812 23.140625 -27.664062 23.765625 -26.21875 L 23.765625 -30.0625 Z M 17.09375 -5.90625 C 19.019531 -5.90625 20.492188 -6.265625 21.515625 -6.984375 C 22.535156 -7.710938 23.226562 -8.734375 23.59375 -10.046875 C 23.96875 -11.367188 24.15625 -13.125 24.15625 -15.3125 C 24.15625 -17.425781 23.96875 -19.140625 23.59375 -20.453125 C 23.226562 -21.773438 22.535156 -22.796875 21.515625 -23.515625 C 20.492188 -24.242188 19.019531 -24.609375 17.09375 -24.609375 C 14.53125 -24.609375 12.835938 -23.789062 12.015625 -22.15625 C 11.203125 -20.519531 10.796875 -18.238281 10.796875 -15.3125 C 10.796875 -12.269531 11.210938 -9.941406 12.046875 -8.328125 C 12.890625 -6.710938 14.570312 -5.90625 17.09375 -5.90625 Z M 17.09375 -5.90625 "/></g></g></g><g fill="#000000" fill-opacity="1"><g transform="translate(144.378692, 210.210706)"><g><path d="M 7.96875 -34.234375 C 6.664062 -34.234375 5.707031 -34.328125 5.09375 -34.515625 C 4.476562 -34.703125 4.050781 -35.09375 3.8125 -35.6875 C 3.570312 -36.28125 3.453125 -37.226562 3.453125 -38.53125 C 3.453125 -39.789062 3.570312 -40.707031 3.8125 -41.28125 C 4.050781 -41.851562 4.476562 -42.234375 5.09375 -42.421875 C 5.707031 -42.609375 6.664062 -42.703125 7.96875 -42.703125 C 9.300781 -42.703125 10.265625 -42.609375 10.859375 -42.421875 C 11.453125 -42.234375 11.867188 -41.859375 12.109375 -41.296875 C 12.347656 -40.742188 12.46875 -39.820312 12.46875 -38.53125 C 12.46875 -37.226562 12.347656 -36.28125 12.109375 -35.6875 C 11.867188 -35.09375 11.441406 -34.703125 10.828125 -34.515625 C 10.210938 -34.328125 9.257812 -34.234375 7.96875 -34.234375 Z M 3.890625 -30.0625 L 11.96875 -30.0625 L 11.96875 0 L 3.890625 0 Z M 3.890625 -30.0625 "/></g></g></g><g fill="#000000" fill-opacity="1"><g transform="translate(160.301451, 210.210706)"><g><path d="M 31.78125 -30.0625 L 31.78125 -2.34375 C 31.78125 2.039062 30.5 5.382812 27.9375 7.6875 C 25.382812 9.988281 21.117188 11.140625 15.140625 11.140625 C 12.097656 11.140625 9.238281 10.894531 6.5625 10.40625 L 6.5625 4.015625 C 9.050781 4.609375 11.707031 4.90625 14.53125 4.90625 C 17.875 4.90625 20.25 4.347656 21.65625 3.234375 C 23.0625 2.117188 23.765625 0.148438 23.765625 -2.671875 L 23.765625 -4.28125 C 23.140625 -2.875 22.117188 -1.804688 20.703125 -1.078125 C 19.296875 -0.359375 17.296875 0 14.703125 0 C 10.128906 0 6.953125 -1.296875 5.171875 -3.890625 C 3.390625 -6.492188 2.5 -10.300781 2.5 -15.3125 C 2.5 -19.988281 3.410156 -23.707031 5.234375 -26.46875 C 7.054688 -29.238281 10.210938 -30.625 14.703125 -30.625 C 17.335938 -30.625 19.347656 -30.25 20.734375 -29.5 C 22.128906 -28.757812 23.140625 -27.664062 23.765625 -26.21875 L 23.765625 -30.0625 Z M 17.09375 -5.90625 C 19.019531 -5.90625 20.492188 -6.265625 21.515625 -6.984375 C 22.535156 -7.710938 23.226562 -8.734375 23.59375 -10.046875 C 23.96875 -11.367188 24.15625 -13.125 24.15625 -15.3125 C 24.15625 -17.425781 23.96875 -19.140625 23.59375 -20.453125 C 23.226562 -21.773438 22.535156 -22.796875 21.515625 -23.515625 C 20.492188 -24.242188 19.019531 -24.609375 17.09375 -24.609375 C 14.53125 -24.609375 12.835938 -23.789062 12.015625 -22.15625 C 11.203125 -20.519531 10.796875 -18.238281 10.796875 -15.3125 C 10.796875 -12.269531 11.210938 -9.941406 12.046875 -8.328125 C 12.890625 -6.710938 14.570312 -5.90625 17.09375 -5.90625 Z M 17.09375 -5.90625 "/></g></g></g><g fill="#000000" fill-opacity="1"><g transform="translate(196.155509, 210.210706)"><g><path d="M 31.78125 -30.0625 L 31.78125 -2.34375 C 31.78125 2.039062 30.5 5.382812 27.9375 7.6875 C 25.382812 9.988281 21.117188 11.140625 15.140625 11.140625 C 12.097656 11.140625 9.238281 10.894531 6.5625 10.40625 L 6.5625 4.015625 C 9.050781 4.609375 11.707031 4.90625 14.53125 4.90625 C 17.875 4.90625 20.25 4.347656 21.65625 3.234375 C 23.0625 2.117188 23.765625 0.148438 23.765625 -2.671875 L 23.765625 -4.28125 C 23.140625 -2.875 22.117188 -1.804688 20.703125 -1.078125 C 19.296875 -0.359375 17.296875 0 14.703125 0 C 10.128906 0 6.953125 -1.296875 5.171875 -3.890625 C 3.390625 -6.492188 2.5 -10.300781 2.5 -15.3125 C 2.5 -19.988281 3.410156 -23.707031 5.234375 -26.46875 C 7.054688 -29.238281 10.210938 -30.625 14.703125 -30.625 C 17.335938 -30.625 19.347656 -30.25 20.734375 -29.5 C 22.128906 -28.757812 23.140625 -27.664062 23.765625 -26.21875 L 23.765625 -30.0625 Z M 17.09375 -5.90625 C 19.019531 -5.90625 20.492188 -6.265625 21.515625 -6.984375 C 22.535156 -7.710938 23.226562 -8.734375 23.59375 -10.046875 C 23.96875 -11.367188 24.15625 -13.125 24.15625 -15.3125 C 24.15625 -17.425781 23.96875 -19.140625 23.59375 -20.453125 C 23.226562 -21.773438 22.535156 -22.796875 21.515625 -23.515625 C 20.492188 -24.242188 19.019531 -24.609375 17.09375 -24.609375 C 14.53125 -24.609375 12.835938 -23.789062 12.015625 -22.15625 C 11.203125 -20.519531 10.796875 -18.238281 10.796875 -15.3125 C 10.796875 -12.269531 11.210938 -9.941406 12.046875 -8.328125 C 12.890625 -6.710938 14.570312 -5.90625 17.09375 -5.90625 Z M 17.09375 -5.90625 "/></g></g></g><g fill="#000000" fill-opacity="1"><g transform="translate(232.009567, 210.210706)"><g><path d="M 17.265625 0.5625 C 13.953125 0.5625 11.226562 0.0976562 9.09375 -0.828125 C 6.96875 -1.765625 5.335938 -3.375 4.203125 -5.65625 C 3.066406 -7.9375 2.5 -11.0625 2.5 -15.03125 C 2.5 -19 3.066406 -22.125 4.203125 -24.40625 C 5.335938 -26.695312 6.96875 -28.304688 9.09375 -29.234375 C 11.226562 -30.160156 13.953125 -30.625 17.265625 -30.625 C 20.523438 -30.625 23.222656 -30.160156 25.359375 -29.234375 C 27.492188 -28.304688 29.125 -26.695312 30.25 -24.40625 C 31.382812 -22.125 31.953125 -19 31.953125 -15.03125 C 31.953125 -11.0625 31.382812 -7.9375 30.25 -5.65625 C 29.125 -3.375 27.492188 -1.765625 25.359375 -0.828125 C 23.222656 0.0976562 20.523438 0.5625 17.265625 0.5625 Z M 17.265625 -5.5625 C 18.929688 -5.5625 20.226562 -5.847656 21.15625 -6.421875 C 22.082031 -7.003906 22.738281 -7.960938 23.125 -9.296875 C 23.519531 -10.628906 23.71875 -12.539062 23.71875 -15.03125 C 23.71875 -17.476562 23.507812 -19.390625 23.09375 -20.765625 C 22.6875 -22.140625 22.019531 -23.125 21.09375 -23.71875 C 20.164062 -24.3125 18.890625 -24.609375 17.265625 -24.609375 C 15.585938 -24.609375 14.285156 -24.3125 13.359375 -23.71875 C 12.429688 -23.125 11.769531 -22.148438 11.375 -20.796875 C 10.988281 -19.441406 10.796875 -17.519531 10.796875 -15.03125 C 10.796875 -12.582031 11 -10.679688 11.40625 -9.328125 C 11.820312 -7.972656 12.484375 -7.003906 13.390625 -6.421875 C 14.296875 -5.847656 15.585938 -5.5625 17.265625 -5.5625 Z M 17.265625 -5.5625 "/></g></g></g><path stroke-linecap="round" transform="matrix(0.0214756, 0.749692, -0.749692, 0.0214756, 293.386274, 166.429487)" fill="none" stroke-linejoin="miter" d="M 8.521962 39.926466 C 27.390499 -4.686963 46.256309 -4.64153 65.1246 40.062912 " stroke="#ffbd59" stroke-width="13" stroke-opacity="1" stroke-miterlimit="4"/><g clip-path="url(#aef2125162)"><g clip-path="url(#4dab225c6e)"><path fill="#ffbd59" d="M 147.660156 166.898438 L 157.402344 166.898438 L 157.402344 177.019531 L 147.660156 177.019531 Z M 147.660156 166.898438 " fill-opacity="1" fill-rule="nonzero"/></g></g></svg>